<svg width="70" height="44" viewBox="0 0 70 44" fill="none" xmlns="http://www.w3.org/2000/svg">
<path d="M39.2351 10.4973V37.6067H46.7176V23.3966C46.7176 20.635 47.1745 18.6599 48.0879 17.4713C49.0014 16.2478 50.4765 15.636 52.5142 15.636C54.3057 15.636 55.553 16.1954 56.2556 17.314C56.9583 18.3977 57.3096 20.0582 57.3096 22.2955V37.6067H64.7921V20.9321C64.7921 19.2542 64.6341 17.7335 64.3178 16.3702C64.0367 14.9718 63.5274 13.8008 62.7898 12.8569C62.0519 11.8781 61.0332 11.1265 59.7335 10.6022C58.4688 10.0428 56.8352 9.76318 54.8329 9.76318C53.2518 9.76318 51.7063 10.1303 50.1955 10.8643C48.685 11.5635 47.4556 12.6996 46.5068 14.2727H46.3488V10.4973H39.2351Z" fill="white"/>
<path fill-rule="evenodd" clip-rule="evenodd" d="M7.82111 22.9069C7.01343 23.6008 6.81557 23.7407 6.14027 23.7407V29.596C9.01279 29.596 10.6024 28.2298 11.5883 27.3825C11.6 27.3724 11.6116 27.3625 11.6231 27.3526C12.4307 26.6587 12.6286 26.5189 13.3039 26.5189C13.9792 26.5189 14.1771 26.6587 14.9847 27.3526C14.9962 27.3625 15.0078 27.3724 15.0195 27.3825C16.0054 28.2298 17.595 29.596 20.4675 29.596C23.3401 29.596 24.9297 28.2298 25.9156 27.3825L25.9503 27.3526C26.758 26.6587 26.9559 26.5189 27.6312 26.5189C28.3065 26.5189 28.5043 26.6587 29.312 27.3526L29.3467 27.3825C30.3327 28.2298 31.9223 29.596 34.7948 29.596C37.6672 29.596 39.2571 28.2298 40.2429 27.3825L40.2775 27.3526C41.0853 26.6587 41.2832 26.5189 41.9586 26.5189V20.6636C39.0858 20.6636 37.4963 22.0297 36.5105 22.8771L36.4756 22.9069C35.668 23.6008 35.4702 23.7407 34.7948 23.7407C34.1195 23.7407 33.9216 23.6008 33.1139 22.9069L33.0792 22.8771C32.0933 22.0297 30.5037 20.6636 27.6312 20.6636C24.7586 20.6636 23.169 22.0297 22.1831 22.8771C22.1715 22.8871 22.1599 22.897 22.1484 22.9069C21.3407 23.6008 21.1428 23.7407 20.4675 23.7407C19.7922 23.7407 19.5944 23.6008 18.7867 22.9069C18.7752 22.897 18.7636 22.8871 18.752 22.8771C17.766 22.0297 16.1764 20.6636 13.3039 20.6636C10.4313 20.6636 8.84178 22.0297 7.85586 22.8771C7.84418 22.8871 7.83261 22.897 7.82111 22.9069Z" fill="white"/>
<path d="M18.3266 9.24816L13.429 23.0153L11.2698 29.1633L8.32071 37.5181H0L14.2189 0H22.6976L36.7587 37.5181H28.1746L25.3308 29.1633L23.1716 23.0153L18.432 9.24816H18.3266Z" fill="white"/>
</svg>
