<svg width="41" height="30" viewBox="0 0 41 30" fill="none" xmlns="http://www.w3.org/2000/svg">
<path d="M23.1693 9.17948V24.9413H27.588V16.6793C27.588 15.0736 27.8576 13.9253 28.3971 13.2343C28.9365 12.5229 29.8077 12.1672 31.011 12.1672C32.069 12.1672 32.8055 12.4924 33.2203 13.1428C33.6352 13.7729 33.8426 14.7383 33.8426 16.0391V24.9413H38.2612V15.2464C38.2612 14.2708 38.168 13.3867 37.9812 12.594C37.8152 11.781 37.5145 11.1002 37.0788 10.5514C36.6433 9.98231 36.0416 9.54532 35.274 9.24044C34.5273 8.91524 33.5625 8.75265 32.38 8.75265C31.4465 8.75265 30.5338 8.96605 29.6417 9.39288C28.7497 9.79938 28.0235 10.4599 27.4636 11.3745H27.3701V9.17948H23.1693Z" fill="#0E0E0E"/>
<path fill-rule="evenodd" clip-rule="evenodd" d="M4.61851 16.3947C4.14156 16.7981 4.02471 16.8795 3.62593 16.8795V20.2838C5.32224 20.2838 6.26093 19.4895 6.84312 18.9968C6.85003 18.991 6.85687 18.9852 6.86365 18.9795C7.3406 18.5761 7.45746 18.4947 7.85623 18.4947C8.255 18.4947 8.37185 18.5761 8.8488 18.9795C8.85559 18.9852 8.86242 18.991 8.8693 18.9968C9.45152 19.4895 10.3902 20.2838 12.0865 20.2838C13.7828 20.2838 14.7215 19.4895 15.3037 18.9968L15.3242 18.9795C15.8012 18.5761 15.918 18.4947 16.3168 18.4947C16.7156 18.4947 16.8325 18.5761 17.3094 18.9795L17.3299 18.9968C17.9121 19.4895 18.8508 20.2838 20.5471 20.2838C22.2434 20.2838 23.1821 19.4895 23.7643 18.9968L23.7848 18.9795C24.2617 18.5761 24.3787 18.4947 24.7775 18.4947V15.0904C23.0811 15.0904 22.1424 15.8847 21.5602 16.3773L21.5397 16.3947C21.0627 16.7981 20.9459 16.8795 20.5471 16.8795C20.1484 16.8795 20.0315 16.7981 19.5545 16.3947L19.534 16.3773C18.9518 15.8847 18.0131 15.0904 16.3168 15.0904C14.6205 15.0904 13.6818 15.8847 13.0996 16.3773C13.0927 16.3832 13.0859 16.389 13.0791 16.3947C12.6021 16.7981 12.4853 16.8795 12.0865 16.8795C11.6877 16.8795 11.5709 16.7981 11.0939 16.3947C11.0872 16.389 11.0803 16.3832 11.0734 16.3773C10.4912 15.8847 9.55253 15.0904 7.85623 15.0904C6.15992 15.0904 5.22123 15.8847 4.63901 16.3773C4.63213 16.3832 4.62529 16.389 4.61851 16.3947Z" fill="#0E0E0E"/>
<path d="M10.8223 8.45334L7.93013 16.4578L6.65509 20.0322L4.91359 24.8899H0L8.39663 3.07634H13.4035L21.7068 24.8899H16.6378L14.9584 20.0322L13.6834 16.4578L10.8845 8.45334H10.8223Z" fill="#0E0E0E"/>
</svg>
